{
	"asset":{
		"generator":"Khronos glTF Blender I/O v3.6.28",
		"version":"2.0"
	},
	"scene":0,
	"scenes":[
		{
			"name":"Scene",
			"nodes":[
				0,
				1,
				2
			]
		}
	],
	"nodes":[
		{
			"mesh":0,
			"name":"MS Head",
			"translation":[
				0.2703790068626404,
				0.40325140953063965,
				0
			]
		},
		{
			"mesh":1,
			"name":"MS Box Array",
			"translation":[
				0.2703790068626404,
				0.40325140953063965,
				0
			]
		},
		{
			"mesh":2,
			"name":"MS Hold",
			"translation":[
				0.27037906646728516,
				0.40325140953063965,
				0
			]
		}
	],
	"materials":[
		{
			"doubleSided":true,
			"name":"MS",
			"normalTexture":{
				"index":0
			},
			"pbrMetallicRoughness":{
				"baseColorTexture":{
					"index":1
				},
				"metallicRoughnessTexture":{
					"index":2
				}
			}
		}
	],
	"meshes":[
		{
			"name":"Cube.007",
			"primitives":[
				{
					"attributes":{
						"POSITION":0,
						"NORMAL":1,
						"TEXCOORD_0":2
					},
					"indices":3,
					"material":0
				}
			]
		},
		{
			"name":"Cube.011",
			"primitives":[
				{
					"attributes":{
						"POSITION":4,
						"NORMAL":5,
						"TEXCOORD_0":6
					},
					"indices":7,
					"material":0
				}
			]
		},
		{
			"name":"Cube.021",
			"primitives":[
				{
					"attributes":{
						"POSITION":8,
						"NORMAL":9,
						"TEXCOORD_0":10
					},
					"indices":11,
					"material":0
				}
			]
		}
	],
	"textures":[
		{
			"sampler":0,
			"source":0
		},
		{
			"sampler":0,
			"source":1
		},
		{
			"sampler":0,
			"source":2
		}
	],
	"images":[
		{
			"mimeType":"image/png",
			"name":"Sci-Fi Shotgun_MS_Height",
			"uri":"Sci-Fi%20Shotgun_MS_Height.png"
		},
		{
			"mimeType":"image/png",
			"name":"Sci-Fi Shotgun_MS_BaseColor",
			"uri":"Sci-Fi%20Shotgun_MS_BaseColor.png"
		},
		{
			"mimeType":"image/png",
			"name":"Sci-Fi Shotgun_MS_Metallic-Sci-Fi Shotgun_MS_Roughness",
			"uri":"Sci-Fi%20Shotgun_MS_Metallic-Sci-Fi%20Shotgun_MS_Roughness.png"
		}
	],
	"accessors":[
		{
			"bufferView":0,
			"componentType":5126,
			"count":5727,
			"max":[
				2.123983144760132,
				0.28928500413894653,
				0.20683996379375458
			],
			"min":[
				-0.21737080812454224,
				-0.5058704614639282,
				-0.20683996379375458
			],
			"type":"VEC3"
		},
		{
			"bufferView":1,
			"componentType":5126,
			"count":5727,
			"type":"VEC3"
		},
		{
			"bufferView":2,
			"componentType":5126,
			"count":5727,
			"type":"VEC2"
		},
		{
			"bufferView":3,
			"componentType":5123,
			"count":30204,
			"type":"SCALAR"
		},
		{
			"bufferView":4,
			"componentType":5126,
			"count":432,
			"max":[
				1.4594166278839111,
				-0.08848834037780762,
				0.10326351970434189
			],
			"min":[
				1.2723100185394287,
				-0.20268964767456055,
				-0.10326351970434189
			],
			"type":"VEC3"
		},
		{
			"bufferView":5,
			"componentType":5126,
			"count":432,
			"type":"VEC3"
		},
		{
			"bufferView":6,
			"componentType":5126,
			"count":432,
			"type":"VEC2"
		},
		{
			"bufferView":7,
			"componentType":5123,
			"count":2448,
			"type":"SCALAR"
		},
		{
			"bufferView":8,
			"componentType":5126,
			"count":1943,
			"max":[
				0.5887367725372314,
				0.1580108404159546,
				0.14176204800605774
			],
			"min":[
				-0.8747808933258057,
				-0.7556335926055908,
				-0.14176204800605774
			],
			"type":"VEC3"
		},
		{
			"bufferView":9,
			"componentType":5126,
			"count":1943,
			"type":"VEC3"
		},
		{
			"bufferView":10,
			"componentType":5126,
			"count":1943,
			"type":"VEC2"
		},
		{
			"bufferView":11,
			"componentType":5123,
			"count":11088,
			"type":"SCALAR"
		}
	],
	"bufferViews":[
		{
			"buffer":0,
			"byteLength":68724,
			"byteOffset":0,
			"target":34962
		},
		{
			"buffer":0,
			"byteLength":68724,
			"byteOffset":68724,
			"target":34962
		},
		{
			"buffer":0,
			"byteLength":45816,
			"byteOffset":137448,
			"target":34962
		},
		{
			"buffer":0,
			"byteLength":60408,
			"byteOffset":183264,
			"target":34963
		},
		{
			"buffer":0,
			"byteLength":5184,
			"byteOffset":243672,
			"target":34962
		},
		{
			"buffer":0,
			"byteLength":5184,
			"byteOffset":248856,
			"target":34962
		},
		{
			"buffer":0,
			"byteLength":3456,
			"byteOffset":254040,
			"target":34962
		},
		{
			"buffer":0,
			"byteLength":4896,
			"byteOffset":257496,
			"target":34963
		},
		{
			"buffer":0,
			"byteLength":23316,
			"byteOffset":262392,
			"target":34962
		},
		{
			"buffer":0,
			"byteLength":23316,
			"byteOffset":285708,
			"target":34962
		},
		{
			"buffer":0,
			"byteLength":15544,
			"byteOffset":309024,
			"target":34962
		},
		{
			"buffer":0,
			"byteLength":22176,
			"byteOffset":324568,
			"target":34963
		}
	],
	"samplers":[
		{
			"magFilter":9729,
			"minFilter":9987
		}
	],
	"buffers":[
		{
			"byteLength":346744,
			"uri":"shotgun.bin"
		}
	]
}
