{
	"asset":{
		"generator":"Khronos glTF Blender I/O v3.6.28",
		"version":"2.0"
	},
	"scene":0,
	"scenes":[
		{
			"name":"Scene",
			"nodes":[
				0
			]
		}
	],
	"nodes":[
		{
			"mesh":0,
			"name":"Elevator_New",
			"translation":[
				0.03919404745101929,
				1.936434030532837,
				0.0014989376068115234
			]
		}
	],
	"materials":[
		{
			"doubleSided":true,
			"name":"Mesh",
			"normalTexture":{
				"index":0
			},
			"pbrMetallicRoughness":{
				"baseColorTexture":{
					"index":1
				},
				"metallicRoughnessTexture":{
					"index":2
				}
			}
		}
	],
	"meshes":[
		{
			"name":"Cube.004",
			"primitives":[
				{
					"attributes":{
						"POSITION":0,
						"NORMAL":1,
						"TEXCOORD_0":2
					},
					"indices":3,
					"material":0
				},
				{
					"attributes":{
						"POSITION":4,
						"NORMAL":5,
						"TEXCOORD_0":6
					},
					"indices":7,
					"material":0
				}
			]
		}
	],
	"textures":[
		{
			"sampler":0,
			"source":0
		},
		{
			"sampler":0,
			"source":1
		},
		{
			"sampler":0,
			"source":2
		}
	],
	"images":[
		{
			"mimeType":"image/png",
			"name":"Elevator_nor",
			"uri":"Elevator_nor.png"
		},
		{
			"mimeType":"image/png",
			"name":"Elevator_base",
			"uri":"Elevator_base.png"
		},
		{
			"mimeType":"image/png",
			"name":"Elevator_metal-Elevator_rough",
			"uri":"Elevator_metal-Elevator_rough.png"
		}
	],
	"accessors":[
		{
			"bufferView":0,
			"componentType":5126,
			"count":64,
			"max":[
				3.491360664367676,
				2.0807697772979736,
				3.0999999046325684
			],
			"min":[
				-3.491360664367676,
				-2.0807697772979736,
				-3.0999999046325684
			],
			"type":"VEC3"
		},
		{
			"bufferView":1,
			"componentType":5126,
			"count":64,
			"type":"VEC3"
		},
		{
			"bufferView":2,
			"componentType":5126,
			"count":64,
			"type":"VEC2"
		},
		{
			"bufferView":3,
			"componentType":5123,
			"count":144,
			"type":"SCALAR"
		},
		{
			"bufferView":4,
			"componentType":5126,
			"count":32,
			"max":[
				3.491360664367676,
				1.4221659898757935,
				1.872714877128601
			],
			"min":[
				-3.491360664367676,
				-1.936432123184204,
				-1.8757127523422241
			],
			"type":"VEC3"
		},
		{
			"bufferView":5,
			"componentType":5126,
			"count":32,
			"type":"VEC3"
		},
		{
			"bufferView":6,
			"componentType":5126,
			"count":32,
			"type":"VEC2"
		},
		{
			"bufferView":7,
			"componentType":5123,
			"count":48,
			"type":"SCALAR"
		}
	],
	"bufferViews":[
		{
			"buffer":0,
			"byteLength":768,
			"byteOffset":0,
			"target":34962
		},
		{
			"buffer":0,
			"byteLength":768,
			"byteOffset":768,
			"target":34962
		},
		{
			"buffer":0,
			"byteLength":512,
			"byteOffset":1536,
			"target":34962
		},
		{
			"buffer":0,
			"byteLength":288,
			"byteOffset":2048,
			"target":34963
		},
		{
			"buffer":0,
			"byteLength":384,
			"byteOffset":2336,
			"target":34962
		},
		{
			"buffer":0,
			"byteLength":384,
			"byteOffset":2720,
			"target":34962
		},
		{
			"buffer":0,
			"byteLength":256,
			"byteOffset":3104,
			"target":34962
		},
		{
			"buffer":0,
			"byteLength":96,
			"byteOffset":3360,
			"target":34963
		}
	],
	"samplers":[
		{
			"magFilter":9729,
			"minFilter":9987
		}
	],
	"buffers":[
		{
			"byteLength":3456,
			"uri":"Elevator.bin"
		}
	]
}
