{
	"asset":{
		"generator":"Khronos glTF Blender I/O v3.6.27",
		"version":"2.0"
	},
	"scene":0,
	"scenes":[
		{
			"name":"Scene",
			"nodes":[
				0,
				1
			]
		}
	],
	"nodes":[
		{
			"mesh":0,
			"name":"LeafSet019_2K_Color_A.322",
			"rotation":[
				0.7071068286895752,
				0,
				0,
				0.7071068286895752
			]
		},
		{
			"mesh":1,
			"name":"tree",
			"rotation":[
				0.7071068286895752,
				0,
				0,
				0.7071068286895752
			]
		}
	],
	"materials":[
		{
			"alphaMode":"BLEND",
			"doubleSided":true,
			"name":"LeafSet019_2K_Color_A.001",
			"pbrMetallicRoughness":{
				"baseColorTexture":{
					"index":0
				},
				"metallicFactor":0,
				"roughnessFactor":0.5
			}
		},
		{
			"doubleSided":true,
			"name":"Material.003",
			"pbrMetallicRoughness":{
				"baseColorFactor":[
					0.05475899949669838,
					0.006533999927341938,
					0,
					1
				],
				"metallicFactor":0,
				"roughnessFactor":0.5
			}
		}
	],
	"meshes":[
		{
			"name":"LeafSet019_2K_Color_A.652",
			"primitives":[
				{
					"attributes":{
						"POSITION":0,
						"NORMAL":1,
						"TEXCOORD_0":2
					},
					"indices":3,
					"material":0
				}
			]
		},
		{
			"name":"tree.001",
			"primitives":[
				{
					"attributes":{
						"POSITION":4,
						"NORMAL":5,
						"TEXCOORD_0":6
					},
					"indices":7,
					"material":1
				}
			]
		}
	],
	"textures":[
		{
			"sampler":0,
			"source":0
		}
	],
	"images":[
		{
			"mimeType":"image/png",
			"name":"LeafSet019_2K_Color_A",
			"uri":"LeafSet019_2K_Color_A.png"
		}
	],
	"accessors":[
		{
			"bufferView":0,
			"componentType":5126,
			"count":1292,
			"max":[
				1.9997190237045288,
				2.110656976699829,
				-3.87390398979187
			],
			"min":[
				-1.9863049983978271,
				-1.8045099973678589,
				-9.49404525756836
			],
			"type":"VEC3"
		},
		{
			"bufferView":1,
			"componentType":5126,
			"count":1292,
			"type":"VEC3"
		},
		{
			"bufferView":2,
			"componentType":5126,
			"count":1292,
			"type":"VEC2"
		},
		{
			"bufferView":3,
			"componentType":5123,
			"count":1938,
			"type":"SCALAR"
		},
		{
			"bufferView":4,
			"componentType":5126,
			"count":6958,
			"max":[
				1.452139973640442,
				1.5665099620819092,
				0
			],
			"min":[
				-1.516495943069458,
				-1.5450520515441895,
				-8.97231674194336
			],
			"type":"VEC3"
		},
		{
			"bufferView":5,
			"componentType":5126,
			"count":6958,
			"type":"VEC3"
		},
		{
			"bufferView":6,
			"componentType":5126,
			"count":6958,
			"type":"VEC2"
		},
		{
			"bufferView":7,
			"componentType":5123,
			"count":33120,
			"type":"SCALAR"
		}
	],
	"bufferViews":[
		{
			"buffer":0,
			"byteLength":15504,
			"byteOffset":0,
			"target":34962
		},
		{
			"buffer":0,
			"byteLength":15504,
			"byteOffset":15504,
			"target":34962
		},
		{
			"buffer":0,
			"byteLength":10336,
			"byteOffset":31008,
			"target":34962
		},
		{
			"buffer":0,
			"byteLength":3876,
			"byteOffset":41344,
			"target":34963
		},
		{
			"buffer":0,
			"byteLength":83496,
			"byteOffset":45220,
			"target":34962
		},
		{
			"buffer":0,
			"byteLength":83496,
			"byteOffset":128716,
			"target":34962
		},
		{
			"buffer":0,
			"byteLength":55664,
			"byteOffset":212212,
			"target":34962
		},
		{
			"buffer":0,
			"byteLength":66240,
			"byteOffset":267876,
			"target":34963
		}
	],
	"samplers":[
		{
			"magFilter":9729,
			"minFilter":9987
		}
	],
	"buffers":[
		{
			"byteLength":334116,
			"uri":"FirTree3.bin"
		}
	]
}
