{
	"asset":{
		"generator":"Khronos glTF Blender I/O v3.6.28",
		"version":"2.0"
	},
	"scene":0,
	"scenes":[
		{
			"name":"Scene",
			"nodes":[
				0
			]
		}
	],
	"nodes":[
		{
			"mesh":0,
			"name":"russian_food_cans_01_can_cond",
			"translation":[
				0.0002771429717540741,
				0.000592220458202064,
				0.003196390112861991
			]
		}
	],
	"materials":[
		{
			"doubleSided":true,
			"name":"russian_food_cans_01",
			"normalTexture":{
				"index":0
			},
			"pbrMetallicRoughness":{
				"baseColorTexture":{
					"index":1
				},
				"metallicRoughnessTexture":{
					"index":2
				}
			}
		}
	],
	"meshes":[
		{
			"name":"Cylinder.005",
			"primitives":[
				{
					"attributes":{
						"POSITION":0,
						"NORMAL":1,
						"TEXCOORD_0":2
					},
					"indices":3,
					"material":0
				}
			]
		}
	],
	"textures":[
		{
			"sampler":0,
			"source":0
		},
		{
			"sampler":0,
			"source":1
		},
		{
			"sampler":0,
			"source":2
		}
	],
	"images":[
		{
			"mimeType":"image/jpeg",
			"name":"russian_food_cans_01_nor_gl_2k",
			"uri":"russian_food_cans_01_nor_gl_2k.jpg"
		},
		{
			"mimeType":"image/jpeg",
			"name":"russian_food_cans_01_diff_2k",
			"uri":"russian_food_cans_01_diff_2k.jpg"
		},
		{
			"mimeType":"image/jpeg",
			"name":"russian_food_cans_01_arm_2k",
			"uri":"russian_food_cans_01_arm_2k.jpg"
		}
	],
	"accessors":[
		{
			"bufferView":0,
			"componentType":5126,
			"count":499,
			"max":[
				0.019251631572842598,
				0.03750002011656761,
				0.019251631572842598
			],
			"min":[
				-0.019251631572842598,
				0,
				-0.019251631572842598
			],
			"type":"VEC3"
		},
		{
			"bufferView":1,
			"componentType":5126,
			"count":499,
			"type":"VEC3"
		},
		{
			"bufferView":2,
			"componentType":5126,
			"count":499,
			"type":"VEC2"
		},
		{
			"bufferView":3,
			"componentType":5123,
			"count":1956,
			"type":"SCALAR"
		}
	],
	"bufferViews":[
		{
			"buffer":0,
			"byteLength":5988,
			"byteOffset":0,
			"target":34962
		},
		{
			"buffer":0,
			"byteLength":5988,
			"byteOffset":5988,
			"target":34962
		},
		{
			"buffer":0,
			"byteLength":3992,
			"byteOffset":11976,
			"target":34962
		},
		{
			"buffer":0,
			"byteLength":3912,
			"byteOffset":15968,
			"target":34963
		}
	],
	"samplers":[
		{
			"magFilter":9729,
			"minFilter":9987
		}
	],
	"buffers":[
		{
			"byteLength":19880,
			"uri":"sguschenka_cc0_Kosan_Aziz.bin"
		}
	]
}
