{
	"asset":{
		"generator":"Khronos glTF Blender I/O v3.6.27",
		"version":"2.0"
	},
	"scene":0,
	"scenes":[
		{
			"name":"Scene",
			"nodes":[
				0,
				1
			]
		}
	],
	"nodes":[
		{
			"mesh":0,
			"name":"LeafSet019_2K_Color_A.314",
			"rotation":[
				0.7071068286895752,
				0,
				0,
				0.7071068286895752
			]
		},
		{
			"mesh":1,
			"name":"tree",
			"rotation":[
				0.7071068286895752,
				0,
				0,
				0.7071068286895752
			]
		}
	],
	"materials":[
		{
			"alphaMode":"BLEND",
			"doubleSided":true,
			"name":"LeafSet019_2K_Color_A",
			"pbrMetallicRoughness":{
				"baseColorTexture":{
					"index":0
				},
				"metallicFactor":0,
				"roughnessFactor":0.5
			}
		},
		{
			"doubleSided":true,
			"name":"Material.002",
			"pbrMetallicRoughness":{
				"baseColorFactor":[
					0.05077600106596947,
					0.006647000089287758,
					0,
					1
				],
				"metallicFactor":0,
				"roughnessFactor":0.5
			}
		}
	],
	"meshes":[
		{
			"name":"LeafSet019_2K_Color_A.314",
			"primitives":[
				{
					"attributes":{
						"POSITION":0,
						"NORMAL":1,
						"TEXCOORD_0":2
					},
					"indices":3,
					"material":0
				}
			]
		},
		{
			"name":"tree",
			"primitives":[
				{
					"attributes":{
						"POSITION":4,
						"NORMAL":5,
						"TEXCOORD_0":6
					},
					"indices":7,
					"material":1
				}
			]
		}
	],
	"textures":[
		{
			"sampler":0,
			"source":0
		}
	],
	"images":[
		{
			"mimeType":"image/png",
			"name":"LeafSet019_2K_Color_A",
			"uri":"LeafSet019_2K_Color_A.png"
		}
	],
	"accessors":[
		{
			"bufferView":0,
			"componentType":5126,
			"count":1272,
			"max":[
				2.3050379753112793,
				2.1698570251464844,
				-4.565907955169678
			],
			"min":[
				-2.389723062515259,
				-2.3596150875091553,
				-11.086727142333984
			],
			"type":"VEC3"
		},
		{
			"bufferView":1,
			"componentType":5126,
			"count":1272,
			"type":"VEC3"
		},
		{
			"bufferView":2,
			"componentType":5126,
			"count":1272,
			"type":"VEC2"
		},
		{
			"bufferView":3,
			"componentType":5123,
			"count":1908,
			"type":"SCALAR"
		},
		{
			"bufferView":4,
			"componentType":5126,
			"count":6776,
			"max":[
				1.8279060125350952,
				1.8313039541244507,
				0
			],
			"min":[
				-1.856781005859375,
				-1.804075002670288,
				-10.506425857543945
			],
			"type":"VEC3"
		},
		{
			"bufferView":5,
			"componentType":5126,
			"count":6776,
			"type":"VEC3"
		},
		{
			"bufferView":6,
			"componentType":5126,
			"count":6776,
			"type":"VEC2"
		},
		{
			"bufferView":7,
			"componentType":5123,
			"count":32400,
			"type":"SCALAR"
		}
	],
	"bufferViews":[
		{
			"buffer":0,
			"byteLength":15264,
			"byteOffset":0,
			"target":34962
		},
		{
			"buffer":0,
			"byteLength":15264,
			"byteOffset":15264,
			"target":34962
		},
		{
			"buffer":0,
			"byteLength":10176,
			"byteOffset":30528,
			"target":34962
		},
		{
			"buffer":0,
			"byteLength":3816,
			"byteOffset":40704,
			"target":34963
		},
		{
			"buffer":0,
			"byteLength":81312,
			"byteOffset":44520,
			"target":34962
		},
		{
			"buffer":0,
			"byteLength":81312,
			"byteOffset":125832,
			"target":34962
		},
		{
			"buffer":0,
			"byteLength":54208,
			"byteOffset":207144,
			"target":34962
		},
		{
			"buffer":0,
			"byteLength":64800,
			"byteOffset":261352,
			"target":34963
		}
	],
	"samplers":[
		{
			"magFilter":9729,
			"minFilter":9987
		}
	],
	"buffers":[
		{
			"byteLength":326152,
			"uri":"fir_tree_1.bin"
		}
	]
}
