{
	"asset":{
		"generator":"Khronos glTF Blender I/O v3.6.27",
		"version":"2.0"
	},
	"scene":0,
	"scenes":[
		{
			"name":"Scene",
			"nodes":[
				0,
				1
			]
		}
	],
	"nodes":[
		{
			"mesh":0,
			"name":"LeafSet019_2K_Color_A.327",
			"rotation":[
				0.7071068286895752,
				0,
				0,
				0.7071068286895752
			]
		},
		{
			"mesh":1,
			"name":"tree",
			"rotation":[
				0.7071068286895752,
				0,
				0,
				0.7071068286895752
			]
		}
	],
	"materials":[
		{
			"alphaMode":"BLEND",
			"doubleSided":true,
			"name":"LeafSet019_2K_Color_A",
			"pbrMetallicRoughness":{
				"baseColorTexture":{
					"index":0
				},
				"metallicFactor":0,
				"roughnessFactor":0.5
			}
		},
		{
			"doubleSided":true,
			"name":"Material.005",
			"pbrMetallicRoughness":{
				"baseColorFactor":[
					0.043331000953912735,
					0.006893000099807978,
					0,
					1
				],
				"metallicFactor":0,
				"roughnessFactor":0.5
			}
		}
	],
	"meshes":[
		{
			"name":"LeafSet019_2K_Color_A.327",
			"primitives":[
				{
					"attributes":{
						"POSITION":0,
						"NORMAL":1,
						"TEXCOORD_0":2
					},
					"indices":3,
					"material":0
				}
			]
		},
		{
			"name":"tree",
			"primitives":[
				{
					"attributes":{
						"POSITION":4,
						"NORMAL":5,
						"TEXCOORD_0":6
					},
					"indices":7,
					"material":1
				}
			]
		}
	],
	"textures":[
		{
			"sampler":0,
			"source":0
		}
	],
	"images":[
		{
			"mimeType":"image/png",
			"name":"LeafSet019_2K_Color_A",
			"uri":"LeafSet019_2K_Color_A.png"
		}
	],
	"accessors":[
		{
			"bufferView":0,
			"componentType":5126,
			"count":1320,
			"max":[
				2.7203478813171387,
				2.7399139404296875,
				-5.155701160430908
			],
			"min":[
				-2.633457899093628,
				-2.5042269229888916,
				-12.813865661621094
			],
			"type":"VEC3"
		},
		{
			"bufferView":1,
			"componentType":5126,
			"count":1320,
			"type":"VEC3"
		},
		{
			"bufferView":2,
			"componentType":5126,
			"count":1320,
			"type":"VEC2"
		},
		{
			"bufferView":3,
			"componentType":5123,
			"count":1980,
			"type":"SCALAR"
		},
		{
			"bufferView":4,
			"componentType":5126,
			"count":7238,
			"max":[
				2.2849199771881104,
				2.2695670127868652,
				0
			],
			"min":[
				-2.1075150966644287,
				-1.9812190532684326,
				-12.413961410522461
			],
			"type":"VEC3"
		},
		{
			"bufferView":5,
			"componentType":5126,
			"count":7238,
			"type":"VEC3"
		},
		{
			"bufferView":6,
			"componentType":5126,
			"count":7238,
			"type":"VEC2"
		},
		{
			"bufferView":7,
			"componentType":5123,
			"count":34416,
			"type":"SCALAR"
		}
	],
	"bufferViews":[
		{
			"buffer":0,
			"byteLength":15840,
			"byteOffset":0,
			"target":34962
		},
		{
			"buffer":0,
			"byteLength":15840,
			"byteOffset":15840,
			"target":34962
		},
		{
			"buffer":0,
			"byteLength":10560,
			"byteOffset":31680,
			"target":34962
		},
		{
			"buffer":0,
			"byteLength":3960,
			"byteOffset":42240,
			"target":34963
		},
		{
			"buffer":0,
			"byteLength":86856,
			"byteOffset":46200,
			"target":34962
		},
		{
			"buffer":0,
			"byteLength":86856,
			"byteOffset":133056,
			"target":34962
		},
		{
			"buffer":0,
			"byteLength":57904,
			"byteOffset":219912,
			"target":34962
		},
		{
			"buffer":0,
			"byteLength":68832,
			"byteOffset":277816,
			"target":34963
		}
	],
	"samplers":[
		{
			"magFilter":9729,
			"minFilter":9987
		}
	],
	"buffers":[
		{
			"byteLength":346648,
			"uri":"FirTree2.bin"
		}
	]
}
