{
	"asset":{
		"generator":"Khronos glTF Blender I/O v3.6.28",
		"version":"2.0"
	},
	"scene":0,
	"scenes":[
		{
			"name":"Scene",
			"nodes":[
				0,
				1
			]
		}
	],
	"nodes":[
		{
			"mesh":0,
			"name":"Sphere"
		},
		{
			"mesh":1,
			"name":"Cylinder"
		}
	],
	"materials":[
		{
			"doubleSided":true,
			"name":"fluffy",
			"pbrMetallicRoughness":{
				"metallicFactor":0,
				"roughnessFactor":0.5
			}
		}
	],
	"meshes":[
		{
			"name":"Sphere",
			"primitives":[
				{
					"attributes":{
						"POSITION":0,
						"NORMAL":1,
						"TEXCOORD_0":2
					},
					"indices":3,
					"material":0
				}
			]
		},
		{
			"name":"Cylinder",
			"primitives":[
				{
					"attributes":{
						"POSITION":4,
						"NORMAL":5,
						"TEXCOORD_0":6
					},
					"indices":7
				}
			]
		}
	],
	"accessors":[
		{
			"bufferView":0,
			"componentType":5126,
			"count":3273,
			"max":[
				0.9999997019767761,
				2.8908541202545166,
				0.9999993443489075
			],
			"min":[
				-0.9999990463256836,
				-1,
				-1
			],
			"type":"VEC3"
		},
		{
			"bufferView":1,
			"componentType":5126,
			"count":3273,
			"type":"VEC3"
		},
		{
			"bufferView":2,
			"componentType":5126,
			"count":3273,
			"type":"VEC2"
		},
		{
			"bufferView":3,
			"componentType":5123,
			"count":5010,
			"type":"SCALAR"
		},
		{
			"bufferView":4,
			"componentType":5126,
			"count":1600,
			"max":[
				1.7221708297729492,
				0.9903514981269836,
				0.38276246190071106
			],
			"min":[
				-1.7221708297729492,
				0.22482648491859436,
				-0.38276246190071106
			],
			"type":"VEC3"
		},
		{
			"bufferView":5,
			"componentType":5126,
			"count":1600,
			"type":"VEC3"
		},
		{
			"bufferView":6,
			"componentType":5126,
			"count":1600,
			"type":"VEC2"
		},
		{
			"bufferView":7,
			"componentType":5123,
			"count":2484,
			"type":"SCALAR"
		}
	],
	"bufferViews":[
		{
			"buffer":0,
			"byteLength":39276,
			"byteOffset":0,
			"target":34962
		},
		{
			"buffer":0,
			"byteLength":39276,
			"byteOffset":39276,
			"target":34962
		},
		{
			"buffer":0,
			"byteLength":26184,
			"byteOffset":78552,
			"target":34962
		},
		{
			"buffer":0,
			"byteLength":10020,
			"byteOffset":104736,
			"target":34963
		},
		{
			"buffer":0,
			"byteLength":19200,
			"byteOffset":114756,
			"target":34962
		},
		{
			"buffer":0,
			"byteLength":19200,
			"byteOffset":133956,
			"target":34962
		},
		{
			"buffer":0,
			"byteLength":12800,
			"byteOffset":153156,
			"target":34962
		},
		{
			"buffer":0,
			"byteLength":4968,
			"byteOffset":165956,
			"target":34963
		}
	],
	"buffers":[
		{
			"byteLength":170924,
			"uri":"fluffy.bin"
		}
	]
}
