{
	"asset":{
		"generator":"Khronos glTF Blender I/O v3.6.27",
		"version":"2.0"
	},
	"scene":0,
	"scenes":[
		{
			"name":"Scene",
			"nodes":[
				0,
				1,
				2
			]
		}
	],
	"nodes":[
		{
			"mesh":0,
			"name":"Cube.003"
		},
		{
			"mesh":1,
			"name":"Cube.001",
			"rotation":[
				0,
				-1,
				0,
				4.371138828673793e-08
			],
			"translation":[
				0.003067013109102845,
				0,
				0
			]
		},
		{
			"mesh":2,
			"name":"Cube.002",
			"translation":[
				-0.003067013109102845,
				0,
				0
			]
		}
	],
	"materials":[
		{
			"doubleSided":true,
			"name":"door_frame",
			"normalTexture":{
				"index":0
			},
			"pbrMetallicRoughness":{
				"baseColorTexture":{
					"index":1
				},
				"metallicRoughnessTexture":{
					"index":2
				}
			}
		},
		{
			"doubleSided":true,
			"name":"door",
			"normalTexture":{
				"index":3
			},
			"pbrMetallicRoughness":{
				"baseColorTexture":{
					"index":4
				},
				"metallicRoughnessTexture":{
					"index":5
				}
			}
		},
		{
			"doubleSided":true,
			"name":"door.001",
			"normalTexture":{
				"index":6
			},
			"pbrMetallicRoughness":{
				"baseColorTexture":{
					"index":7
				},
				"metallicRoughnessTexture":{
					"index":8
				}
			}
		}
	],
	"meshes":[
		{
			"name":"Cube.002",
			"primitives":[
				{
					"attributes":{
						"POSITION":0,
						"NORMAL":1,
						"TEXCOORD_0":2
					},
					"indices":3,
					"material":0
				}
			]
		},
		{
			"name":"Cube.001",
			"primitives":[
				{
					"attributes":{
						"POSITION":4,
						"NORMAL":5,
						"TEXCOORD_0":6
					},
					"indices":7,
					"material":1
				}
			]
		},
		{
			"name":"Cube.003",
			"primitives":[
				{
					"attributes":{
						"POSITION":8,
						"NORMAL":9,
						"TEXCOORD_0":10
					},
					"indices":7,
					"material":2
				}
			]
		}
	],
	"textures":[
		{
			"sampler":0,
			"source":0
		},
		{
			"sampler":0,
			"source":1
		},
		{
			"sampler":0,
			"source":2
		},
		{
			"sampler":0,
			"source":3
		},
		{
			"sampler":0,
			"source":4
		},
		{
			"sampler":0,
			"source":5
		},
		{
			"sampler":0,
			"source":3
		},
		{
			"sampler":0,
			"source":4
		},
		{
			"sampler":0,
			"source":6
		}
	],
	"images":[
		{
			"mimeType":"image/png",
			"name":"Door_Texturize_door_frame_Normal",
			"uri":"Door_Texturize_door_frame_Normal.png"
		},
		{
			"mimeType":"image/png",
			"name":"Door_Texturize_door_frame_Albedo",
			"uri":"Door_Texturize_door_frame_Albedo.png"
		},
		{
			"mimeType":"image/png",
			"name":"Door_Texturize_door_frame_Metallic-Door_Texturize_door_frame_Roughness",
			"uri":"Door_Texturize_door_frame_Metallic-Door_Texturize_door_frame_Roughness.png"
		},
		{
			"mimeType":"image/png",
			"name":"Door_Texturize_door_Normal",
			"uri":"Door_Texturize_door_Normal.png"
		},
		{
			"mimeType":"image/png",
			"name":"Door_Texturize_door_Albedo",
			"uri":"Door_Texturize_door_Albedo.png"
		},
		{
			"mimeType":"image/png",
			"name":"Door_Texturize_door_Metallic-Door_Texturize_door_Roughness",
			"uri":"Door_Texturize_door_Metallic-Door_Texturize_door_Roughness.png"
		},
		{
			"mimeType":"image/png",
			"name":"Door_Texturize_door_Metallic.png-Door_Texturize_door_Roughness.png",
			"uri":"Door_Texturize_door_Metallic_png-Door_Texturize_door_Roughness_png.png"
		}
	],
	"accessors":[
		{
			"bufferView":0,
			"componentType":5126,
			"count":224,
			"max":[
				1.0586525201797485,
				3.2969560623168945,
				0.20187802612781525
			],
			"min":[
				-1.0586525201797485,
				0.014310240745544434,
				-0.20567587018013
			],
			"type":"VEC3"
		},
		{
			"bufferView":1,
			"componentType":5126,
			"count":224,
			"type":"VEC3"
		},
		{
			"bufferView":2,
			"componentType":5126,
			"count":224,
			"type":"VEC2"
		},
		{
			"bufferView":3,
			"componentType":5123,
			"count":336,
			"type":"SCALAR"
		},
		{
			"bufferView":4,
			"componentType":5126,
			"count":120,
			"max":[
				1.0186443328857422,
				3.2081313133239746,
				0.06309039890766144
			],
			"min":[
				0.0033731162548065186,
				0.009463906288146973,
				-0.06309039890766144
			],
			"type":"VEC3"
		},
		{
			"bufferView":5,
			"componentType":5126,
			"count":120,
			"type":"VEC3"
		},
		{
			"bufferView":6,
			"componentType":5126,
			"count":120,
			"type":"VEC2"
		},
		{
			"bufferView":7,
			"componentType":5123,
			"count":180,
			"type":"SCALAR"
		},
		{
			"bufferView":8,
			"componentType":5126,
			"count":120,
			"max":[
				1.0186443328857422,
				3.2081313133239746,
				0.06309039890766144
			],
			"min":[
				0.0033731162548065186,
				0.009463906288146973,
				-0.06309039890766144
			],
			"type":"VEC3"
		},
		{
			"bufferView":9,
			"componentType":5126,
			"count":120,
			"type":"VEC3"
		},
		{
			"bufferView":10,
			"componentType":5126,
			"count":120,
			"type":"VEC2"
		}
	],
	"bufferViews":[
		{
			"buffer":0,
			"byteLength":2688,
			"byteOffset":0,
			"target":34962
		},
		{
			"buffer":0,
			"byteLength":2688,
			"byteOffset":2688,
			"target":34962
		},
		{
			"buffer":0,
			"byteLength":1792,
			"byteOffset":5376,
			"target":34962
		},
		{
			"buffer":0,
			"byteLength":672,
			"byteOffset":7168,
			"target":34963
		},
		{
			"buffer":0,
			"byteLength":1440,
			"byteOffset":7840,
			"target":34962
		},
		{
			"buffer":0,
			"byteLength":1440,
			"byteOffset":9280,
			"target":34962
		},
		{
			"buffer":0,
			"byteLength":960,
			"byteOffset":10720,
			"target":34962
		},
		{
			"buffer":0,
			"byteLength":360,
			"byteOffset":11680,
			"target":34963
		},
		{
			"buffer":0,
			"byteLength":1440,
			"byteOffset":12040,
			"target":34962
		},
		{
			"buffer":0,
			"byteLength":1440,
			"byteOffset":13480,
			"target":34962
		},
		{
			"buffer":0,
			"byteLength":960,
			"byteOffset":14920,
			"target":34962
		}
	],
	"samplers":[
		{
			"magFilter":9729,
			"minFilter":9987
		}
	],
	"buffers":[
		{
			"byteLength":15880,
			"uri":"door.bin"
		}
	]
}
