{
	"asset":{
		"generator":"Khronos glTF Blender I/O v3.6.28",
		"version":"2.0"
	},
	"scene":0,
	"scenes":[
		{
			"name":"Scene",
			"nodes":[
				0,
				1,
				2,
				3,
				4
			]
		}
	],
	"nodes":[
		{
			"mesh":0,
			"name":"Cube"
		},
		{
			"mesh":1,
			"name":"WagonDoorWide.002",
			"translation":[
				2.0208401679992676,
				0.2596694827079773,
				0.49998560547828674
			]
		},
		{
			"mesh":2,
			"name":"WagonDoorWide.001",
			"translation":[
				2.0208401679992676,
				0.2596694827079773,
				-0.5500940084457397
			]
		},
		{
			"mesh":3,
			"name":"WagonDoorWide.003",
			"translation":[
				-1.8417484760284424,
				0.2596694827079773,
				0.49998560547828674
			]
		},
		{
			"mesh":4,
			"name":"WagonDoorWide.004",
			"translation":[
				-1.8417484760284424,
				0.2596694827079773,
				-0.5500940084457397
			]
		}
	],
	"materials":[
		{
			"doubleSided":true,
			"name":"CableCar",
			"normalTexture":{
				"index":0
			},
			"pbrMetallicRoughness":{
				"baseColorTexture":{
					"index":1
				},
				"metallicRoughnessTexture":{
					"index":2
				}
			}
		},
		{
			"doubleSided":true,
			"name":"Door.002",
			"normalTexture":{
				"index":3
			},
			"pbrMetallicRoughness":{
				"baseColorTexture":{
					"index":4
				},
				"metallicRoughnessTexture":{
					"index":5
				}
			}
		}
	],
	"meshes":[
		{
			"name":"Cube",
			"primitives":[
				{
					"attributes":{
						"POSITION":0,
						"NORMAL":1,
						"TEXCOORD_0":2
					},
					"indices":3,
					"material":0
				}
			]
		},
		{
			"name":"Plane.003",
			"primitives":[
				{
					"attributes":{
						"POSITION":4,
						"NORMAL":5,
						"TEXCOORD_0":6
					},
					"indices":7,
					"material":1
				}
			]
		},
		{
			"name":"Plane.004",
			"primitives":[
				{
					"attributes":{
						"POSITION":8,
						"NORMAL":9,
						"TEXCOORD_0":10
					},
					"indices":7,
					"material":1
				}
			]
		},
		{
			"name":"Plane.001",
			"primitives":[
				{
					"attributes":{
						"POSITION":11,
						"NORMAL":12,
						"TEXCOORD_0":13
					},
					"indices":7,
					"material":1
				}
			]
		},
		{
			"name":"Plane.002",
			"primitives":[
				{
					"attributes":{
						"POSITION":14,
						"NORMAL":15,
						"TEXCOORD_0":16
					},
					"indices":7,
					"material":1
				}
			]
		}
	],
	"textures":[
		{
			"sampler":0,
			"source":0
		},
		{
			"sampler":0,
			"source":1
		},
		{
			"sampler":0,
			"source":2
		},
		{
			"sampler":0,
			"source":3
		},
		{
			"sampler":0,
			"source":4
		},
		{
			"sampler":0,
			"source":5
		}
	],
	"images":[
		{
			"mimeType":"image/png",
			"name":"CableCar_Cube_nor",
			"uri":"CableCar_Cube_nor.png"
		},
		{
			"mimeType":"image/png",
			"name":"CableCar_Cube_base",
			"uri":"CableCar_Cube_base.png"
		},
		{
			"mimeType":"image/png",
			"name":"CableCar_Cube_metal-CableCar_Cube_rough",
			"uri":"CableCar_Cube_metal-CableCar_Cube_rough.png"
		},
		{
			"mimeType":"image/png",
			"name":"CableCar_WagonDoorWide.001_nor",
			"uri":"CableCar_WagonDoorWide_001_nor.png"
		},
		{
			"mimeType":"image/png",
			"name":"CableCar_WagonDoorWide.001_base",
			"uri":"CableCar_WagonDoorWide_001_base.png"
		},
		{
			"mimeType":"image/png",
			"name":"CableCar_WagonDoorWide.001_metal-CableCar_WagonDoorWide.001_rough",
			"uri":"CableCar_WagonDoorWide_001_metal-CableCar_WagonDoorWide_001_rough.png"
		}
	],
	"accessors":[
		{
			"bufferView":0,
			"componentType":5126,
			"count":433,
			"max":[
				2.000854253768921,
				4.659364700317383,
				2.9596962928771973
			],
			"min":[
				-1.9899462461471558,
				-0.15079832077026367,
				-2.9596962928771973
			],
			"type":"VEC3"
		},
		{
			"bufferView":1,
			"componentType":5126,
			"count":433,
			"type":"VEC3"
		},
		{
			"bufferView":2,
			"componentType":5126,
			"count":433,
			"type":"VEC2"
		},
		{
			"bufferView":3,
			"componentType":5123,
			"count":1080,
			"type":"SCALAR"
		},
		{
			"bufferView":4,
			"componentType":5126,
			"count":64,
			"max":[
				-0.04933527484536171,
				2.820434331893921,
				0.5695552825927734
			],
			"min":[
				-0.11765745282173157,
				-0.011578233912587166,
				-0.4914519190788269
			],
			"type":"VEC3"
		},
		{
			"bufferView":5,
			"componentType":5126,
			"count":64,
			"type":"VEC3"
		},
		{
			"bufferView":6,
			"componentType":5126,
			"count":64,
			"type":"VEC2"
		},
		{
			"bufferView":7,
			"componentType":5123,
			"count":144,
			"type":"SCALAR"
		},
		{
			"bufferView":8,
			"componentType":5126,
			"count":64,
			"max":[
				-0.04933527484536171,
				2.820434331893921,
				0.5695552825927734
			],
			"min":[
				-0.11765745282173157,
				-0.011578233912587166,
				-0.4914519190788269
			],
			"type":"VEC3"
		},
		{
			"bufferView":9,
			"componentType":5126,
			"count":64,
			"type":"VEC3"
		},
		{
			"bufferView":10,
			"componentType":5126,
			"count":64,
			"type":"VEC2"
		},
		{
			"bufferView":11,
			"componentType":5126,
			"count":64,
			"max":[
				-0.04933527484536171,
				2.820434331893921,
				0.5695552825927734
			],
			"min":[
				-0.11765745282173157,
				-0.011578233912587166,
				-0.4914519190788269
			],
			"type":"VEC3"
		},
		{
			"bufferView":12,
			"componentType":5126,
			"count":64,
			"type":"VEC3"
		},
		{
			"bufferView":13,
			"componentType":5126,
			"count":64,
			"type":"VEC2"
		},
		{
			"bufferView":14,
			"componentType":5126,
			"count":64,
			"max":[
				-0.04933527484536171,
				2.820434331893921,
				0.5695552825927734
			],
			"min":[
				-0.11765745282173157,
				-0.011578233912587166,
				-0.4914519190788269
			],
			"type":"VEC3"
		},
		{
			"bufferView":15,
			"componentType":5126,
			"count":64,
			"type":"VEC3"
		},
		{
			"bufferView":16,
			"componentType":5126,
			"count":64,
			"type":"VEC2"
		}
	],
	"bufferViews":[
		{
			"buffer":0,
			"byteLength":5196,
			"byteOffset":0,
			"target":34962
		},
		{
			"buffer":0,
			"byteLength":5196,
			"byteOffset":5196,
			"target":34962
		},
		{
			"buffer":0,
			"byteLength":3464,
			"byteOffset":10392,
			"target":34962
		},
		{
			"buffer":0,
			"byteLength":2160,
			"byteOffset":13856,
			"target":34963
		},
		{
			"buffer":0,
			"byteLength":768,
			"byteOffset":16016,
			"target":34962
		},
		{
			"buffer":0,
			"byteLength":768,
			"byteOffset":16784,
			"target":34962
		},
		{
			"buffer":0,
			"byteLength":512,
			"byteOffset":17552,
			"target":34962
		},
		{
			"buffer":0,
			"byteLength":288,
			"byteOffset":18064,
			"target":34963
		},
		{
			"buffer":0,
			"byteLength":768,
			"byteOffset":18352,
			"target":34962
		},
		{
			"buffer":0,
			"byteLength":768,
			"byteOffset":19120,
			"target":34962
		},
		{
			"buffer":0,
			"byteLength":512,
			"byteOffset":19888,
			"target":34962
		},
		{
			"buffer":0,
			"byteLength":768,
			"byteOffset":20400,
			"target":34962
		},
		{
			"buffer":0,
			"byteLength":768,
			"byteOffset":21168,
			"target":34962
		},
		{
			"buffer":0,
			"byteLength":512,
			"byteOffset":21936,
			"target":34962
		},
		{
			"buffer":0,
			"byteLength":768,
			"byteOffset":22448,
			"target":34962
		},
		{
			"buffer":0,
			"byteLength":768,
			"byteOffset":23216,
			"target":34962
		},
		{
			"buffer":0,
			"byteLength":512,
			"byteOffset":23984,
			"target":34962
		}
	],
	"samplers":[
		{
			"magFilter":9729,
			"minFilter":9987
		}
	],
	"buffers":[
		{
			"byteLength":24496,
			"uri":"CableCar.bin"
		}
	]
}
